<svg width="107" height="40" viewBox="0 0 107 40" fill="none" xmlns="http://www.w3.org/2000/svg">
<path d="M41.8379 22.016C41.8474 23.5501 41.2231 25.0192 40.0784 26.1539C38.8959 27.3277 37.2609 28 35.5918 28C32.8781 28 30.5792 26.5495 28.7593 23.6894L28.7197 23.6225L27.5467 21.444C26.5981 19.9322 24.9781 18.1604 22.6113 18.1604C22.5774 18.1604 22.5434 18.1604 22.5076 18.1623C20.2464 18.2106 18.4643 19.9099 18.4511 22.0309C18.4435 22.9966 18.8471 23.9327 19.5845 24.6644C20.3671 25.4407 21.4477 25.8865 22.5491 25.8865H27.6881C28.3444 26.7482 29.029 27.4428 29.7173 28H22.5491C20.8801 28 19.245 27.3277 18.0626 26.1539C16.9178 25.0192 16.2936 23.5501 16.3031 22.016C16.3276 18.7455 19.0301 16.1231 22.4605 16.0488C25.1554 15.9856 27.6202 17.5215 29.393 20.3668L29.4269 20.4244L30.598 22.5992C32.0143 24.8111 33.6475 25.8865 35.5918 25.8865C36.6932 25.8865 37.7738 25.4407 38.5565 24.6644C39.2939 23.9327 39.6974 22.9966 39.6899 22.0309C39.6767 19.9489 37.9586 18.2737 35.7578 18.1679C35.7163 18.1641 35.6749 18.1623 35.6334 18.1623C34.9431 18.1474 34.2755 18.283 33.6381 18.569C33.5985 17.8521 33.3929 17.1501 33.0421 16.5205C32.8177 16.1156 32.5367 15.7423 32.201 15.4155C31.3411 14.576 30.2435 14.1135 29.1063 14.1135H29.078C28.1804 14.1191 27.3336 14.3828 26.6094 14.8694C25.8607 14.4961 25.0762 14.2324 24.2634 14.0838C25.5156 12.7671 27.2487 12.013 29.0648 12C30.7828 11.9945 32.4368 12.6686 33.7135 13.9167C34.3453 14.5351 34.8469 15.265 35.1996 16.0562C35.358 16.0469 35.5202 16.0451 35.6824 16.0488C39.1109 16.1231 41.8153 18.7455 41.8379 22.016Z" fill="#008184"/>
<path d="M55.5029 16.626C55.0973 16.626 54.7373 16.7057 54.4229 16.8652C54.113 17.0202 53.8509 17.2458 53.6367 17.542C53.4271 17.8382 53.2676 18.196 53.1582 18.6152C53.0488 19.0345 52.9941 19.5062 52.9941 20.0303C52.9941 20.7367 53.0807 21.3405 53.2539 21.8418C53.4316 22.3385 53.7051 22.7191 54.0742 22.9834C54.4434 23.2432 54.9196 23.373 55.5029 23.373C55.9085 23.373 56.3141 23.3275 56.7197 23.2363C57.1299 23.1452 57.5742 23.0153 58.0527 22.8467V24.624C57.6107 24.8063 57.1755 24.9362 56.7471 25.0137C56.3187 25.0957 55.8379 25.1367 55.3047 25.1367C54.2747 25.1367 53.4271 24.9248 52.7617 24.501C52.1009 24.0726 51.611 23.4756 51.292 22.71C50.973 21.9398 50.8135 21.042 50.8135 20.0166C50.8135 19.2601 50.916 18.5674 51.1211 17.9385C51.3262 17.3096 51.627 16.765 52.0234 16.3047C52.4199 15.8444 52.9098 15.4889 53.4932 15.2383C54.0765 14.9876 54.7464 14.8623 55.5029 14.8623C55.9997 14.8623 56.4964 14.9261 56.9932 15.0537C57.4945 15.1768 57.973 15.3477 58.4287 15.5664L57.7451 17.2891C57.3714 17.1113 56.9954 16.9564 56.6172 16.8242C56.2389 16.6921 55.8675 16.626 55.5029 16.626ZM62.2464 25H60.1615V14.3633H62.2464V25ZM71.5261 21.165C71.5261 21.8031 71.4395 22.3682 71.2663 22.8604C71.0977 23.3525 70.8493 23.7695 70.5212 24.1113C70.1976 24.4486 69.8057 24.7038 69.3454 24.877C68.8897 25.0501 68.3747 25.1367 67.8005 25.1367C67.2627 25.1367 66.7683 25.0501 66.3171 24.877C65.8705 24.7038 65.4808 24.4486 65.1482 24.1113C64.82 23.7695 64.5648 23.3525 64.3825 22.8604C64.2048 22.3682 64.1159 21.8031 64.1159 21.165C64.1159 20.3174 64.2663 19.5996 64.5671 19.0117C64.8679 18.4238 65.2963 17.9772 65.8523 17.6719C66.4083 17.3665 67.0713 17.2139 67.8415 17.2139C68.557 17.2139 69.1905 17.3665 69.7419 17.6719C70.2979 17.9772 70.7331 18.4238 71.0476 19.0117C71.3666 19.5996 71.5261 20.3174 71.5261 21.165ZM66.2419 21.165C66.2419 21.6663 66.2966 22.0879 66.406 22.4297C66.5154 22.7715 66.6862 23.029 66.9187 23.2021C67.1511 23.3753 67.4542 23.4619 67.8279 23.4619C68.197 23.4619 68.4955 23.3753 68.7234 23.2021C68.9558 23.029 69.1244 22.7715 69.2292 22.4297C69.3386 22.0879 69.3933 21.6663 69.3933 21.165C69.3933 20.6592 69.3386 20.2399 69.2292 19.9072C69.1244 19.57 68.9558 19.3171 68.7234 19.1484C68.4909 18.9798 68.1879 18.8955 67.8142 18.8955C67.2627 18.8955 66.8617 19.0846 66.6111 19.4629C66.365 19.8411 66.2419 20.4085 66.2419 21.165ZM80.4024 17.3574V25H78.8028L78.5225 24.0225H78.4132C78.2491 24.2822 78.044 24.4941 77.7979 24.6582C77.5518 24.8223 77.2807 24.943 76.9845 25.0205C76.6882 25.098 76.3806 25.1367 76.0616 25.1367C75.5147 25.1367 75.0385 25.041 74.6329 24.8496C74.2273 24.6536 73.9106 24.3506 73.6827 23.9404C73.4594 23.5303 73.3477 22.9971 73.3477 22.3408V17.3574H75.4327V21.8213C75.4327 22.3682 75.5307 22.7806 75.7266 23.0586C75.9226 23.3366 76.2348 23.4756 76.6632 23.4756C77.087 23.4756 77.4197 23.3799 77.6612 23.1885C77.9027 22.9925 78.0714 22.7077 78.1671 22.334C78.2673 21.9557 78.3175 21.4954 78.3175 20.9531V17.3574H80.4024ZM85.1498 25.1367C84.2976 25.1367 83.6026 24.804 83.0649 24.1387C82.5317 23.4688 82.2651 22.4867 82.2651 21.1924C82.2651 19.8844 82.5362 18.8955 83.0786 18.2256C83.6209 17.5511 84.3295 17.2139 85.2045 17.2139C85.5691 17.2139 85.8904 17.264 86.1684 17.3643C86.4464 17.4645 86.6857 17.599 86.8862 17.7676C87.0912 17.9362 87.2644 18.1253 87.4057 18.335H87.4741C87.4467 18.1891 87.4125 17.9749 87.3715 17.6924C87.3351 17.4053 87.3168 17.1113 87.3168 16.8105V14.3633H89.4086V25H87.809L87.4057 24.0088H87.3168C87.1847 24.2184 87.0183 24.4098 86.8178 24.583C86.6218 24.7516 86.3871 24.8861 86.1137 24.9863C85.8403 25.0866 85.519 25.1367 85.1498 25.1367ZM85.8813 23.4756C86.4509 23.4756 86.852 23.307 87.0844 22.9697C87.3214 22.6279 87.4467 22.1152 87.4604 21.4316V21.2061C87.4604 20.4632 87.3465 19.8958 87.1186 19.5039C86.8907 19.1074 86.4669 18.9092 85.8471 18.9092C85.3868 18.9092 85.0268 19.1074 84.767 19.5039C84.5073 19.9004 84.3774 20.4723 84.3774 21.2197C84.3774 21.9671 84.5073 22.5299 84.767 22.9082C85.0314 23.2865 85.4028 23.4756 85.8813 23.4756Z" fill="#2C353A"/>
</svg>
