<svg width="99" height="38" viewBox="0 0 99 38" fill="none" xmlns="http://www.w3.org/2000/svg">
<path d="M33.9687 24.9188C33.6897 23.5102 33.0425 22.2008 32.0928 21.1237C31.1431 20.0467 29.925 19.2406 28.5625 18.7875C29.3121 18.2458 29.8708 17.4805 30.1582 16.6014C30.4457 15.7224 30.4472 14.7748 30.1626 13.8949C29.8779 13.0149 29.3217 12.2478 28.5738 11.7037C27.8259 11.1596 26.9248 10.8665 26 10.8665C25.0751 10.8665 24.174 11.1596 23.4262 11.7037C22.6783 12.2478 22.1221 13.0149 21.8374 13.8949C21.5527 14.7748 21.5542 15.7224 21.8417 16.6014C22.1292 17.4805 22.6879 18.2458 23.4375 18.7875C22.0749 19.2406 20.8568 20.0467 19.9072 21.1237C18.9575 22.2008 18.3102 23.5102 18.0312 24.9188C17.9782 25.1833 17.9849 25.4564 18.0508 25.7181C18.1168 25.9798 18.2403 26.2234 18.4125 26.4312C18.5889 26.6488 18.8119 26.824 19.065 26.9441C19.3181 27.0641 19.5949 27.126 19.875 27.125H32.125C32.4051 27.126 32.6819 27.0641 32.9349 26.9441C33.188 26.824 33.411 26.6488 33.5875 26.4312C33.7596 26.2234 33.8832 25.9798 33.9491 25.7181C34.0151 25.4564 34.0218 25.1833 33.9687 24.9188ZM22.875 15.25C22.875 14.6319 23.0583 14.0277 23.4016 13.5138C23.745 12.9999 24.2331 12.5994 24.8041 12.3629C25.3751 12.1264 26.0034 12.0645 26.6096 12.185C27.2158 12.3056 27.7726 12.6033 28.2097 13.0403C28.6467 13.4773 28.9444 14.0342 29.0649 14.6403C29.1855 15.2465 29.1236 15.8749 28.8871 16.4459C28.6506 17.0169 28.25 17.505 27.7361 17.8483C27.2222 18.1917 26.618 18.375 26 18.375C25.1712 18.375 24.3763 18.0458 23.7903 17.4597C23.2042 16.8737 22.875 16.0788 22.875 15.25ZM32.6187 25.6375C32.5599 25.712 32.4848 25.7721 32.3993 25.8132C32.3137 25.8544 32.2199 25.8755 32.125 25.875H19.875C19.78 25.8755 19.6862 25.8544 19.6007 25.8132C19.5151 25.7721 19.4401 25.712 19.3812 25.6375C19.3254 25.5732 19.2851 25.4969 19.2635 25.4145C19.2418 25.3322 19.2393 25.246 19.2562 25.1625C19.5657 23.6016 20.407 22.1963 21.6368 21.1864C22.8666 20.1765 24.4087 19.6245 26 19.6245C27.5913 19.6245 29.1333 20.1765 30.3631 21.1864C31.5929 22.1963 32.4343 23.6016 32.7437 25.1625C32.7606 25.246 32.7582 25.3322 32.7365 25.4145C32.7148 25.4969 32.6745 25.5732 32.6187 25.6375Z" fill="#2C353A"/>
<path d="M45.2578 24V14.0059H47.377V22.25H51.4307V24H45.2578ZM60.0951 20.165C60.0951 20.8031 60.0085 21.3682 59.8353 21.8604C59.6667 22.3525 59.4183 22.7695 59.0902 23.1113C58.7666 23.4486 58.3747 23.7038 57.9144 23.877C57.4587 24.0501 56.9437 24.1367 56.3695 24.1367C55.8317 24.1367 55.3373 24.0501 54.8861 23.877C54.4395 23.7038 54.0498 23.4486 53.7171 23.1113C53.389 22.7695 53.1338 22.3525 52.9515 21.8604C52.7738 21.3682 52.6849 20.8031 52.6849 20.165C52.6849 19.3174 52.8353 18.5996 53.1361 18.0117C53.4369 17.4238 53.8653 16.9772 54.4213 16.6719C54.9772 16.3665 55.6403 16.2139 56.4105 16.2139C57.126 16.2139 57.7595 16.3665 58.3109 16.6719C58.8669 16.9772 59.3021 17.4238 59.6166 18.0117C59.9356 18.5996 60.0951 19.3174 60.0951 20.165ZM54.8109 20.165C54.8109 20.6663 54.8656 21.0879 54.975 21.4297C55.0843 21.7715 55.2552 22.029 55.4877 22.2021C55.7201 22.3753 56.0231 22.4619 56.3968 22.4619C56.766 22.4619 57.0645 22.3753 57.2923 22.2021C57.5248 22.029 57.6934 21.7715 57.7982 21.4297C57.9076 21.0879 57.9623 20.6663 57.9623 20.165C57.9623 19.6592 57.9076 19.2399 57.7982 18.9072C57.6934 18.57 57.5248 18.3171 57.2923 18.1484C57.0599 17.9798 56.7569 17.8955 56.3832 17.8955C55.8317 17.8955 55.4307 18.0846 55.18 18.4629C54.9339 18.8411 54.8109 19.4085 54.8109 20.165ZM64.1931 27.3633C63.1267 27.3633 62.3109 27.1764 61.7458 26.8027C61.1853 26.4336 60.905 25.9141 60.905 25.2441C60.905 24.7839 61.0486 24.3988 61.3357 24.0889C61.6228 23.779 62.0443 23.5579 62.6003 23.4258C62.3861 23.3346 62.1993 23.1865 62.0398 22.9814C61.8803 22.7718 61.8005 22.5508 61.8005 22.3184C61.8005 22.0267 61.8848 21.7852 62.0534 21.5938C62.2221 21.3978 62.4659 21.2064 62.7849 21.0195C62.3838 20.8464 62.0648 20.5684 61.8279 20.1855C61.5954 19.8027 61.4792 19.3516 61.4792 18.832C61.4792 18.276 61.6 17.8044 61.8415 17.417C62.0876 17.0251 62.4431 16.7266 62.9079 16.5215C63.3773 16.3164 63.947 16.2139 64.6169 16.2139C64.7582 16.2139 64.9223 16.223 65.1091 16.2412C65.296 16.2594 65.4668 16.2799 65.6218 16.3027C65.7813 16.3255 65.8884 16.3438 65.9431 16.3574H68.6091V17.417L67.4128 17.7246C67.5222 17.8932 67.6042 18.0732 67.6589 18.2646C67.7136 18.4561 67.7409 18.6589 67.7409 18.873C67.7409 19.6934 67.4538 20.3337 66.8796 20.7939C66.3099 21.2497 65.517 21.4775 64.5007 21.4775C64.2592 21.4639 64.0313 21.4456 63.8171 21.4229C63.7123 21.5049 63.6325 21.5915 63.5779 21.6826C63.5232 21.7738 63.4958 21.8695 63.4958 21.9697C63.4958 22.07 63.5368 22.1543 63.6189 22.2227C63.7055 22.2865 63.8331 22.3366 64.0017 22.373C64.1749 22.4049 64.3891 22.4209 64.6443 22.4209H65.9431C66.7816 22.4209 67.4196 22.6009 67.8571 22.9609C68.2992 23.321 68.5202 23.8496 68.5202 24.5469C68.5202 25.4401 68.1465 26.1328 67.3991 26.625C66.6563 27.1172 65.5876 27.3633 64.1931 27.3633ZM64.282 26.0029C64.7787 26.0029 65.2048 25.9551 65.5603 25.8594C65.9203 25.7682 66.196 25.6361 66.3874 25.4629C66.5788 25.2943 66.6745 25.0915 66.6745 24.8545C66.6745 24.6631 66.6176 24.5104 66.5036 24.3965C66.3943 24.2871 66.2256 24.2096 65.9978 24.1641C65.7745 24.1185 65.4874 24.0957 65.1364 24.0957H64.0564C63.8012 24.0957 63.571 24.1367 63.3659 24.2188C63.1654 24.3008 63.0059 24.4147 62.8874 24.5605C62.7689 24.7109 62.7097 24.8841 62.7097 25.0801C62.7097 25.3672 62.8464 25.5928 63.1198 25.7568C63.3978 25.9209 63.7852 26.0029 64.282 26.0029ZM64.6169 20.2061C65.0088 20.2061 65.296 20.0853 65.4782 19.8438C65.6605 19.6022 65.7517 19.2741 65.7517 18.8594C65.7517 18.3991 65.656 18.055 65.4646 17.8271C65.2777 17.5947 64.9952 17.4785 64.6169 17.4785C64.2341 17.4785 63.947 17.5947 63.7556 17.8271C63.5642 18.055 63.4685 18.3991 63.4685 18.8594C63.4685 19.2741 63.5619 19.6022 63.7488 19.8438C63.9402 20.0853 64.2295 20.2061 64.6169 20.2061ZM72.0987 16.3574V24H70.0138V16.3574H72.0987ZM71.0596 13.3633C71.3695 13.3633 71.6361 13.4362 71.8595 13.582C72.0828 13.7233 72.1944 13.9899 72.1944 14.3818C72.1944 14.7692 72.0828 15.0381 71.8595 15.1885C71.6361 15.3343 71.3695 15.4072 71.0596 15.4072C70.7452 15.4072 70.4763 15.3343 70.253 15.1885C70.0343 15.0381 69.9249 14.7692 69.9249 14.3818C69.9249 13.9899 70.0343 13.7233 70.253 13.582C70.4763 13.4362 70.7452 13.3633 71.0596 13.3633ZM78.7739 16.2139C79.5896 16.2139 80.2459 16.4372 80.7426 16.8838C81.2394 17.3258 81.4877 18.0368 81.4877 19.0166V24H79.4028V19.5361C79.4028 18.9893 79.3025 18.5768 79.102 18.2988C78.906 18.0208 78.5961 17.8818 78.1723 17.8818C77.5343 17.8818 77.0991 18.0983 76.8666 18.5312C76.6342 18.9642 76.518 19.5885 76.518 20.4043V24H74.433V16.3574H76.0258L76.3061 17.335H76.4223C76.5864 17.0706 76.7892 16.8564 77.0307 16.6924C77.2768 16.5283 77.548 16.4076 77.8442 16.3301C78.145 16.2526 78.4549 16.2139 78.7739 16.2139Z" fill="#2C353A"/>
</svg>
