<svg width="49" height="48" viewBox="0 0 49 48" fill="none" xmlns="http://www.w3.org/2000/svg">
<path d="M33.4383 32.1147L28.407 27.0834C29.5732 25.6554 30.1461 23.8339 30.0071 21.9954C29.8682 20.157 29.0281 18.4422 27.6605 17.2057C26.2929 15.9692 24.5025 15.3055 22.6594 15.3519C20.8163 15.3982 19.0614 16.1511 17.7578 17.4548C16.4541 18.7585 15.7012 20.5133 15.6549 22.3564C15.6085 24.1995 16.2722 25.99 17.5087 27.3575C18.7452 28.7251 20.46 29.5652 22.2984 29.7042C24.1369 29.8431 25.9584 29.2703 27.3864 28.1041L32.4177 33.1353C32.4845 33.2027 32.564 33.2561 32.6516 33.2926C32.7392 33.3291 32.8331 33.3479 32.928 33.3479C33.0229 33.3479 33.1168 33.3291 33.2044 33.2926C33.292 33.2561 33.3715 33.2027 33.4383 33.1353C33.5057 33.0685 33.5591 32.989 33.5956 32.9014C33.6321 32.8138 33.6509 32.7199 33.6509 32.625C33.6509 32.5301 33.6321 32.4362 33.5956 32.3486C33.5591 32.261 33.5057 32.1815 33.4383 32.1147ZM22.8655 28.3125C21.7282 28.3125 20.6165 27.9753 19.671 27.3434C18.7254 26.7116 17.9884 25.8136 17.5532 24.7629C17.118 23.7123 17.0041 22.5561 17.226 21.4407C17.4478 20.3253 17.9955 19.3008 18.7996 18.4966C19.6038 17.6925 20.6283 17.1448 21.7437 16.923C22.8591 16.7011 24.0152 16.815 25.0659 17.2502C26.1166 17.6854 27.0146 18.4224 27.6464 19.368C28.2783 20.3136 28.6155 21.4253 28.6155 22.5625C28.6155 24.0875 28.0097 25.55 26.9313 26.6284C25.853 27.7067 24.3905 28.3125 22.8655 28.3125Z" fill="#2C353A"/>
</svg>
