<svg width="20" height="20" viewBox="0 0 20 20" fill="none" xmlns="http://www.w3.org/2000/svg">
<path d="M18.125 8.75002V13.75C18.125 14.9103 17.6641 16.0231 16.8436 16.8436C16.0231 17.6641 14.9103 18.125 13.75 18.125H2.5C2.33424 18.125 2.17527 18.0592 2.05806 17.942C1.94085 17.8248 1.875 17.6658 1.875 17.5C1.875 17.3343 1.94085 17.1753 2.05806 17.0581C2.17527 16.9409 2.33424 16.875 2.5 16.875H13.75C14.5788 16.875 15.3737 16.5458 15.9597 15.9597C16.5458 15.3737 16.875 14.5788 16.875 13.75V8.75002C16.875 8.58426 16.8092 8.42529 16.6919 8.30808C16.5747 8.19087 16.4158 8.12502 16.25 8.12502L11.875 8.12502C11.7092 8.12502 11.5503 8.05917 11.4331 7.94196C11.3158 7.82475 11.25 7.66578 11.25 7.50002V5.00002C11.2497 4.58568 11.1122 4.1831 10.8589 3.85518C10.6056 3.52727 10.2508 3.29249 9.85 3.18752L8.75 7.65002C8.72364 7.76092 8.66744 7.86251 8.5875 7.94377L6.7125 9.81877C6.65189 9.87899 6.57958 9.92614 6.50003 9.95732C6.42048 9.98849 6.33539 10.003 6.25 10H2.5C2.33424 10 2.17527 9.93417 2.05806 9.81696C1.94085 9.69975 1.875 9.54078 1.875 9.37502C1.875 9.20926 1.94085 9.05029 2.05806 8.93308C2.17527 8.81587 2.33424 8.75002 2.5 8.75002H5.99375L7.5625 7.18127L8.75 2.35002C8.78422 2.21135 8.8649 2.08858 8.97862 2.00215C9.09234 1.91573 9.23223 1.87086 9.375 1.87502C10.2038 1.87502 10.9987 2.20426 11.5847 2.79031C12.1708 3.37636 12.5 4.17122 12.5 5.00002V6.87502L16.25 6.87502C16.7473 6.87502 17.2242 7.07257 17.5758 7.4242C17.9275 7.77583 18.125 8.25274 18.125 8.75002Z" fill="#7F8C8D"/>
</svg>
